<?xml version="1.0" encoding="UTF-8"?>
<!DOCTYPE svg PUBLIC "-//W3C//DTD SVG 1.1//EN" "http://www.w3.org/Graphics/SVG/1.1/DTD/svg11.dtd">
<svg xmlns="http://www.w3.org/2000/svg" version="1.1" width="512px" height="512px" style="shape-rendering:geometricPrecision; text-rendering:geometricPrecision; image-rendering:optimizeQuality; fill-rule:evenodd; clip-rule:evenodd" xmlns:xlink="http://www.w3.org/1999/xlink">
<g><path style="opacity:0.994" fill="#468ff1" d="M 256.5,511.5 C 255.833,511.5 255.167,511.5 254.5,511.5C 202.468,458.326 156.302,400.66 116,338.5C 100.305,313.443 86.9712,287.11 76,259.5C 50.1519,182.069 65.6519,114.236 122.5,56C 181.196,4.59314 247.862,-9.07353 322.5,15C 389.293,42.0657 430.127,90.899 445,161.5C 451.011,195.125 447.677,227.792 435,259.5C 417.203,302.781 394.536,343.114 367,380.5C 333.01,426.422 296.177,470.089 256.5,511.5 Z"/></g>
<g><path style="opacity:1" fill="#fefefe" d="M 236.5,42.5 C 301.877,38.1027 351.711,63.436 386,118.5C 410.648,167.138 410.648,215.804 386,264.5C 352.275,319.116 303.108,344.282 238.5,340C 180.923,331.404 140.423,300.571 117,247.5C 95.9646,189.022 105.631,136.355 146,89.5C 170.997,63.9178 201.164,48.2511 236.5,42.5 Z"/></g>
<g><path style="opacity:1" fill="#6dedd3" d="M 170.5,106.5 C 184.5,106.5 198.5,106.5 212.5,106.5C 212.5,163.167 212.5,219.833 212.5,276.5C 198.5,276.5 184.5,276.5 170.5,276.5C 170.5,219.833 170.5,163.167 170.5,106.5 Z"/></g>
<g><path style="opacity:1" fill="#6dedd4" d="M 255.5,106.5 C 273.17,106.333 290.836,106.5 308.5,107C 338.547,113.714 356.38,132.214 362,162.5C 363.348,196.979 347.848,220.146 315.5,232C 309.944,233.64 304.278,234.473 298.5,234.5C 298.5,248.5 298.5,262.5 298.5,276.5C 284.167,276.5 269.833,276.5 255.5,276.5C 255.5,219.833 255.5,163.167 255.5,106.5 Z"/></g>
<g><path style="opacity:1" fill="#fdfefe" d="M 298.5,149.5 C 311.326,149.992 318.326,156.658 319.5,169.5C 318.629,182.704 311.629,190.038 298.5,191.5C 298.5,177.5 298.5,163.5 298.5,149.5 Z"/></g>
</svg>
